<mxfile host="Electron" modified="2024-04-17T15:34:37.586Z" agent="Mozilla/5.0 (Windows NT 10.0; Win64; x64) AppleWebKit/537.36 (KHTML, like Gecko) draw.io/24.2.5 Chrome/120.0.6099.109 Electron/28.1.0 Safari/537.36" etag="b-XrFg0c6HoR7XlxuqK2" version="24.2.5" type="device">
  <diagram name="PÃ¡gina-1" id="hQyFFPePFCIO7utnhzDi">
    <mxGraphModel dx="1100" dy="990" grid="1" gridSize="10" guides="1" tooltips="1" connect="1" arrows="1" fold="1" page="1" pageScale="1" pageWidth="827" pageHeight="1169" math="0" shadow="0">
      <root>
        <mxCell id="0" />
        <mxCell id="1" parent="0" />
        <mxCell id="-WqwssEOdY1EmHictZxy-1" value="Client Application" style="rounded=1;whiteSpace=wrap;html=1;" vertex="1" parent="1">
          <mxGeometry x="80" y="160" width="120" height="60" as="geometry" />
        </mxCell>
        <mxCell id="-WqwssEOdY1EmHictZxy-4" value="Third party api" style="rounded=1;whiteSpace=wrap;html=1;" vertex="1" parent="1">
          <mxGeometry x="460" y="160" width="120" height="60" as="geometry" />
        </mxCell>
        <mxCell id="-WqwssEOdY1EmHictZxy-15" style="edgeStyle=orthogonalEdgeStyle;rounded=0;orthogonalLoop=1;jettySize=auto;html=1;entryX=0;entryY=0.5;entryDx=0;entryDy=0;" edge="1" parent="1" source="-WqwssEOdY1EmHictZxy-10" target="-WqwssEOdY1EmHictZxy-4">
          <mxGeometry relative="1" as="geometry" />
        </mxCell>
        <mxCell id="-WqwssEOdY1EmHictZxy-10" value="Medida Solution" style="swimlane;fontStyle=0;childLayout=stackLayout;horizontal=1;startSize=30;horizontalStack=0;resizeParent=1;resizeParentMax=0;resizeLast=0;collapsible=1;marginBottom=0;whiteSpace=wrap;html=1;" vertex="1" parent="1">
          <mxGeometry x="270" y="90" width="120" height="200" as="geometry" />
        </mxCell>
        <mxCell id="-WqwssEOdY1EmHictZxy-11" value="App logic&lt;div&gt;-Fetch events&lt;/div&gt;&lt;div&gt;-Transform Data&lt;/div&gt;&lt;div&gt;-Error handling&lt;/div&gt;&lt;div&gt;&lt;br style=&quot;text-align: center;&quot;&gt;&lt;/div&gt;" style="text;strokeColor=none;fillColor=none;align=left;verticalAlign=middle;spacingLeft=4;spacingRight=4;overflow=hidden;points=[[0,0.5],[1,0.5]];portConstraint=eastwest;rotatable=0;whiteSpace=wrap;html=1;" vertex="1" parent="-WqwssEOdY1EmHictZxy-10">
          <mxGeometry y="30" width="120" height="90" as="geometry" />
        </mxCell>
        <mxCell id="-WqwssEOdY1EmHictZxy-12" value="&lt;div style=&quot;&quot;&gt;Data access&lt;/div&gt;&lt;div style=&quot;&quot;&gt;-HTTP Requests&lt;/div&gt;&lt;div style=&quot;&quot;&gt;-Response Parsing&lt;/div&gt;" style="text;strokeColor=none;fillColor=none;align=left;verticalAlign=middle;spacingLeft=4;spacingRight=4;overflow=hidden;points=[[0,0.5],[1,0.5]];portConstraint=eastwest;rotatable=0;whiteSpace=wrap;html=1;" vertex="1" parent="-WqwssEOdY1EmHictZxy-10">
          <mxGeometry y="120" width="120" height="80" as="geometry" />
        </mxCell>
        <mxCell id="-WqwssEOdY1EmHictZxy-16" style="edgeStyle=orthogonalEdgeStyle;rounded=0;orthogonalLoop=1;jettySize=auto;html=1;entryX=0.006;entryY=0.774;entryDx=0;entryDy=0;entryPerimeter=0;" edge="1" parent="1" source="-WqwssEOdY1EmHictZxy-1" target="-WqwssEOdY1EmHictZxy-11">
          <mxGeometry relative="1" as="geometry" />
        </mxCell>
      </root>
    </mxGraphModel>
  </diagram>
</mxfile>
